<?xml version="1.0" ?><svg xmlns="http://www.w3.org/2000/svg" xmlns:xlink="http://www.w3.org/1999/xlink" version="1.1" viewBox="0 0 512 512" style="enable-background:new 0 0 512 512;" xml:space="preserve"><g id="_x32_8_Air_Conditioner_x2C__Air_Conditioning_x2C__Heating_x2C__Electronics_x2C__Refreshing"><g><g><g><path style="fill:#CDDCF9;" d="M501.037,225.998V256c0,16.575-13.427,30.002-30.002,30.002H401.02v-10.041      c0-5.498-4.462-9.961-9.961-9.961H120.941c-5.498,0-9.961,4.462-9.961,9.961v10.041H40.965      c-16.575,0-30.002-13.427-30.002-30.002v-30.002H501.037z"/><path style="fill:#FFFFFF;" d="M471.035,65.967H401.02v30.052c0,5.498-4.463,9.961-9.961,9.961H120.941      c-5.498,0-9.961-4.463-9.961-9.961V65.967H40.965c-16.575,0-30.002,13.437-30.002,30.012v130.019h490.074V95.979      C501.037,79.404,487.61,65.967,471.035,65.967z"/><path style="fill:#FFFFFF;" d="M441.033,145.982c11.047,0,20.001,8.955,20.001,20.001c0,11.047-8.955,20.001-20.001,20.001      c-11.057,0-20.011-8.955-20.011-20.001C421.022,154.937,429.976,145.982,441.033,145.982z"/><path style="fill:#FFFFFF;" d="M401.02,296.043c0,5.508-4.462,9.961-9.961,9.961H120.941c-5.498,0-9.961-4.453-9.961-9.961      c0-7.023,0-13.058,0-20.081c0-5.498,4.462-9.961,9.961-9.961h270.119c5.498,0,9.961,4.462,9.961,9.961      C401.02,282.985,401.02,289.019,401.02,296.043z"/><path style="fill:#CDDCF9;" d="M401.02,65.967v30.052c0,5.498-4.462,9.961-9.961,9.961H120.941      c-5.498,0-9.961-4.462-9.961-9.961V65.967H401.02z"/><circle style="fill:#FFFFFF;" cx="361.017" cy="165.984" r="20.001"/></g></g><g><g><g id="XMLID_956_"><path style="fill:#487FE9;" d="M471.033,295.965h-70.011c-5.501,0-9.961-4.46-9.961-9.961s4.46-9.961,9.961-9.961h70.011       c11.052,0,20.043-8.991,20.043-20.043V95.975c0-11.052-8.991-20.043-20.043-20.043H40.967       c-11.052,0-20.043,8.991-20.043,20.043V256c0,11.052,8.991,20.043,20.043,20.043h70.011c5.501,0,9.961,4.46,9.961,9.961       s-4.46,9.961-9.961,9.961H40.967c-22.036,0-39.965-17.929-39.965-39.965V95.975c0-22.036,17.929-39.965,39.965-39.965h430.066       c22.036,0,39.965,17.929,39.965,39.965V256C510.998,278.036,493.069,295.965,471.033,295.965z"/></g><g id="XMLID_955_"><path style="fill:#487FE9;" d="M391.061,115.938H120.939c-10.985,0-19.922-8.937-19.922-19.922V65.971       c0-5.501,4.46-9.961,9.961-9.961s9.961,4.46,9.961,9.961v30.045h270.122V65.971c0-5.501,4.46-9.961,9.961-9.961       s9.961,4.46,9.961,9.961v30.045C410.983,107.001,402.046,115.938,391.061,115.938z"/></g><g id="XMLID_954_"><path style="fill:#487FE9;" d="M441.028,195.95c-16.522,0-29.963-13.441-29.963-29.963s13.441-29.964,29.963-29.964       c16.522,0,29.964,13.442,29.964,29.964S457.55,195.95,441.028,195.95z M441.028,155.944c-5.537,0-10.042,4.505-10.042,10.043       c0,5.537,4.505,10.042,10.042,10.042c5.538,0,10.043-4.505,10.043-10.042C451.07,160.449,446.566,155.944,441.028,155.944z"/></g><g id="XMLID_953_"><path style="fill:#487FE9;" d="M361.016,195.95c-16.522,0-29.964-13.441-29.964-29.963s13.442-29.964,29.964-29.964       s29.963,13.442,29.963,29.964S377.538,195.95,361.016,195.95z M361.016,155.944c-5.538,0-10.043,4.505-10.043,10.043       c0,5.537,4.505,10.042,10.043,10.042c5.537,0,10.042-4.505,10.042-10.042C371.058,160.449,366.553,155.944,361.016,155.944z"/></g><g id="XMLID_952_"><path style="fill:#487FE9;" d="M501.037,235.957H10.963c-5.501,0-9.961-4.46-9.961-9.961c0-5.501,4.46-9.961,9.961-9.961       h490.074c5.501,0,9.961,4.46,9.961,9.961C510.998,231.497,506.538,235.957,501.037,235.957z"/></g><g id="XMLID_951_"><path style="fill:#487FE9;" d="M391.061,315.968H120.939c-10.985,0-19.922-8.937-19.922-19.922v-20.084       c0-10.985,8.937-19.922,19.922-19.922h270.122c10.985,0,19.922,8.937,19.922,19.922v20.084       C410.983,307.032,402.046,315.968,391.061,315.968z M120.939,275.963v20.084c13.713,0,251.69-0.001,270.135-0.001       l-0.013-20.083H120.939z"/></g><g id="XMLID_950_"><path style="fill:#487FE9;" d="M155.985,455.99c-16.522,0-29.964-13.441-29.964-29.963c0-5.501,4.46-9.961,9.961-9.961       c5.501,0,9.961,4.46,9.961,9.961c0,5.537,4.505,10.042,10.043,10.042s10.043-4.505,10.043-10.042v-80.013       c0-5.501,4.46-9.961,9.961-9.961c5.501,0,9.961,4.46,9.961,9.961v80.013C185.949,442.548,172.507,455.99,155.985,455.99z"/></g><g id="XMLID_949_"><path style="fill:#487FE9;" d="M356.015,455.99c-16.522,0-29.964-13.441-29.964-29.963v-80.013c0-5.501,4.46-9.961,9.961-9.961       c5.501,0,9.961,4.46,9.961,9.961v80.013c0,5.537,4.505,10.042,10.043,10.042s10.043-4.505,10.043-10.042       c0-5.501,4.46-9.961,9.961-9.961c5.501,0,9.961,4.46,9.961,9.961C385.98,442.548,372.537,455.99,356.015,455.99z"/></g><g id="XMLID_948_"><path style="fill:#487FE9;" d="M215.994,395.98c-5.501,0-9.961-4.46-9.961-9.961v-40.006c0-5.501,4.46-9.961,9.961-9.961       c5.501,0,9.961,4.46,9.961,9.961v40.006C225.955,391.52,221.495,395.98,215.994,395.98z"/></g><g id="XMLID_947_"><path style="fill:#487FE9;" d="M296.006,395.98c-5.501,0-9.961-4.46-9.961-9.961v-40.006c0-5.501,4.46-9.961,9.961-9.961       s9.961,4.46,9.961,9.961v40.006C305.967,391.52,301.507,395.98,296.006,395.98z"/></g><g id="XMLID_946_"><path style="fill:#487FE9;" d="M256,425.985c-5.501,0-9.961-4.46-9.961-9.961v-70.011c0-5.501,4.46-9.961,9.961-9.961       s9.961,4.46,9.961,9.961v70.011C265.961,421.525,261.501,425.985,256,425.985z"/></g></g></g></g></g><g id="Layer_1"/></svg>